<svg xmlns="http://www.w3.org/2000/svg" width="124" height="38" viewBox="0 0 124 38"><defs><linearGradient id="g" x1="0" y1="0" x2="0" y2="1"><stop offset="0" stop-color="#ff8ad0"/><stop offset="1" stop-color="#ee2288"/></linearGradient><filter id="glow" x="-30%" y="-60%" width="160%" height="220%"><feGaussianBlur stdDeviation="4" result="b"/><feMerge><feMergeNode in="b"/><feMergeNode in="SourceGraphic"/></feMerge></filter></defs><rect x="2" y="2" width="120" height="34" rx="17" fill="#1d0a3d" stroke="#fff" stroke-opacity=".45" stroke-width="2"/><rect x="6" y="4" width="112" height="14.44" rx="7.22" fill="#fff" opacity=".07"/><path d="M74 0V680H508V560H212V360H454V240H212V0Z" fill="#b9a3e8" transform="translate(54.07 23.485) scale(0.013 -0.013)"/><path d="M162 680 288 430 417 680H560L364 333L560 0H407L281 235L152 0H9L205 326L9 680Z" fill="#b9a3e8" transform="translate(62.533 23.485) scale(0.013 -0.013)"/></svg>