<svg xmlns="http://www.w3.org/2000/svg" width="124" height="38" viewBox="0 0 124 38"><defs><linearGradient id="g" x1="0" y1="0" x2="0" y2="1"><stop offset="0" stop-color="#ffc27a"/><stop offset="1" stop-color="#e07a1a"/></linearGradient><filter id="glow" x="-30%" y="-60%" width="160%" height="220%"><feGaussianBlur stdDeviation="4" result="b"/><feMerge><feMergeNode in="b"/><feMergeNode in="SourceGraphic"/></feMerge></filter></defs><rect x="2" y="2" width="120" height="34" rx="17" fill="url(#g)" stroke="#fff" stroke-width="2.5" filter="url(#glow)"/><rect x="6" y="4" width="112" height="14.44" rx="7.22" fill="#fff" opacity=".4"/><path d="M505 11Q399 -12 314.0 -12.0Q229 -12 178.0 9.0Q127 30 98.0 76.0Q69 122 58.0 184.0Q47 246 47 340Q47 537 102.5 614.5Q158 692 307 692Q393 692 506 665L502 555Q403 570 337.5 570.0Q272 570 244.0 552.5Q216 535 202.5 486.0Q189 437 189.0 319.0Q189 201 216.5 155.5Q244 110 326.5 110.0Q409 110 502 124Z" fill="#ffffff" stroke="rgba(40,8,80,.55)" stroke-width="230.769" stroke-linejoin="round" paint-order="stroke" transform="translate(19.698 23.485) scale(0.013 -0.013)"/><path d="M461 0H74V680H212V122H461Z" fill="#ffffff" stroke="rgba(40,8,80,.55)" stroke-width="230.769" stroke-linejoin="round" paint-order="stroke" transform="translate(28.317 23.485) scale(0.013 -0.013)"/><path d="M215.5 160.5Q245 108 326.0 108.0Q407 108 436.5 160.5Q466 213 466.0 336.5Q466 460 436.0 516.0Q406 572 326.0 572.0Q246 572 216.0 516.0Q186 460 186.0 336.5Q186 213 215.5 160.5ZM544.5 72.5Q481 -12 326.0 -12.0Q171 -12 107.5 72.5Q44 157 44.0 337.0Q44 517 107.5 604.5Q171 692 326.0 692.0Q481 692 544.5 604.5Q608 517 608.0 337.0Q608 157 544.5 72.5Z" fill="#ffffff" stroke="rgba(40,8,80,.55)" stroke-width="230.769" stroke-linejoin="round" paint-order="stroke" transform="translate(36.013 23.485) scale(0.013 -0.013)"/><path d="M283 572Q174 572 174 500Q174 468 201.0 451.0Q228 434 327.5 402.0Q427 370 467.0 329.5Q507 289 507 205Q507 98 442.0 43.0Q377 -12 272 -12Q194 -12 81 12L45 19L59 126Q193 108 264 108Q370 108 370 196Q370 228 345.5 246.0Q321 264 248 285Q132 318 84.5 363.5Q37 409 37 490Q37 592 99.0 642.0Q161 692 269 692Q343 692 457 672L493 665L482 556Q341 572 283 572Z" fill="#ffffff" stroke="rgba(40,8,80,.55)" stroke-width="230.769" stroke-linejoin="round" paint-order="stroke" transform="translate(46.049 23.485) scale(0.013 -0.013)"/><path d="M74 0V680H514V560H212V401H454V283H212V120H514V0Z" fill="#ffffff" stroke="rgba(40,8,80,.55)" stroke-width="230.769" stroke-linejoin="round" paint-order="stroke" transform="translate(54.681 23.485) scale(0.013 -0.013)"/><path d="M303 0H74V680H303Q391 680 448.0 661.5Q505 643 536.5 600.5Q568 558 580.0 500.5Q592 443 592.0 351.0Q592 259 581.0 198.5Q570 138 539.5 90.5Q509 43 451.0 21.5Q393 0 303 0ZM448 270Q450 302 450.0 358.5Q450 415 446.0 449.0Q442 483 427.0 511.0Q412 539 382.5 549.5Q353 560 303 560H212V120H303Q378 120 412 158Q441 189 448 270Z" fill="#ffffff" stroke="rgba(40,8,80,.55)" stroke-width="230.769" stroke-linejoin="round" paint-order="stroke" transform="translate(63.443 23.485) scale(0.013 -0.013)"/><path d="M465 0V282H212V0H74V680H212V402H465V680H603V0Z" fill="#ffffff" stroke="rgba(40,8,80,.55)" stroke-width="230.769" stroke-linejoin="round" paint-order="stroke" transform="translate(77.717 23.485) scale(0.013 -0.013)"/><path d="M17 0 170 680H432L585 0H447L420 123H182L155 0ZM277 566 208 243H394L325 566Z" fill="#ffffff" stroke="rgba(40,8,80,.55)" stroke-width="230.769" stroke-linejoin="round" paint-order="stroke" transform="translate(88.078 23.485) scale(0.013 -0.013)"/><path d="M13 558V680H513V558H333V0H195V558Z" fill="#ffffff" stroke="rgba(40,8,80,.55)" stroke-width="230.769" stroke-linejoin="round" paint-order="stroke" transform="translate(97.464 23.485) scale(0.013 -0.013)"/></svg>